HIERARCHY
ROOT Hips
{
	OFFSET 0.00000 0.00000 0.00000
	CHANNELS 6 Xposition Yposition Zposition Zrotation Yrotation Xrotation 
	JOINT LHipJoint
	{
		OFFSET 0 0 0
		CHANNELS 3 Zrotation Yrotation Xrotation
		JOINT LeftUpLeg
		{
			OFFSET 1.74857 -1.85566 0.69197
			CHANNELS 3 Zrotation Yrotation Xrotation
			JOINT LeftLeg
			{
				OFFSET 2.40003 -6.59403 0.00000
				CHANNELS 3 Zrotation Yrotation Xrotation
				JOINT LeftFoot
				{
					OFFSET 2.82169 -7.75254 0.00000
					CHANNELS 3 Zrotation Yrotation Xrotation
					JOINT LeftToeBase
					{
						OFFSET 0.16466 -0.45240 2.26890
						CHANNELS 3 Zrotation Yrotation Xrotation
						End Site
						{
							OFFSET 0.00000 -0.00000 1.16486
						}
					}
				}
			}
		}
	}
	JOINT RHipJoint
	{
		OFFSET 0 0 0
		CHANNELS 3 Zrotation Yrotation Xrotation
		JOINT RightUpLeg
		{
			OFFSET -1.64169 -1.85566 0.69197
			CHANNELS 3 Zrotation Yrotation Xrotation
			JOINT RightLeg
			{
				OFFSET -2.41814 -6.64379 0.00000
				CHANNELS 3 Zrotation Yrotation Xrotation
				JOINT RightFoot
				{
					OFFSET -2.80588 -7.70911 0.00000
					CHANNELS 3 Zrotation Yrotation Xrotation
					JOINT RightToeBase
					{
						OFFSET -0.19098 -0.52472 2.25401
						CHANNELS 3 Zrotation Yrotation Xrotation
						End Site
						{
							OFFSET -0.00000 -0.00000 1.16333
						}
					}
				}
			}
		}
	}
	JOINT LowerBack
	{
		OFFSET 0 0 0
		CHANNELS 3 Zrotation Yrotation Xrotation
		JOINT Spine
		{
			OFFSET -0.02828 2.14690 -0.11061
			CHANNELS 3 Zrotation Yrotation Xrotation
			JOINT Spine1
			{
				OFFSET -0.00167 2.15299 0.00759
				CHANNELS 3 Zrotation Yrotation Xrotation
				JOINT Neck
				{
					OFFSET 0 0 0
					CHANNELS 3 Zrotation Yrotation Xrotation
					JOINT Neck1
					{
						OFFSET -0.09296 1.90118 0.07197
						CHANNELS 3 Zrotation Yrotation Xrotation
						JOINT Head
						{
							OFFSET 0.08490 1.89526 -0.24604
							CHANNELS 3 Zrotation Yrotation Xrotation
							End Site
							{
								OFFSET 0.03186 1.92109 -0.09483
							}
						}
					}
				}
				JOINT LeftShoulder
				{
					OFFSET 0 0 0
					CHANNELS 3 Zrotation Yrotation Xrotation
					JOINT LeftArm
					{
						OFFSET 3.21569 1.44644 -0.03720
						CHANNELS 3 Zrotation Yrotation Xrotation
						JOINT LeftForeArm
						{
							OFFSET 5.47651 -0.00000 -0.00000
							CHANNELS 3 Zrotation Yrotation Xrotation
							JOINT LeftHand
							{
								OFFSET 3.09058 -0.00000 -0.00000
								CHANNELS 3 Zrotation Yrotation Xrotation
								JOINT LeftFingerBase
								{
									OFFSET 0 0 0
									CHANNELS 3 Zrotation Yrotation Xrotation
									JOINT LeftHandIndex1
									{
										OFFSET 0.77161 -0.00000 -0.00000
										CHANNELS 3 Zrotation Yrotation Xrotation
										End Site
										{
											OFFSET 0.62209 -0.00000 -0.00000
										}
									}
								}
								JOINT LThumb
								{
									OFFSET 0 0 0
									CHANNELS 3 Zrotation Yrotation Xrotation
									End Site
									{
										OFFSET 0.63159 -0.00000 0.63159
									}
								}
							}
						}
					}
				}
				JOINT RightShoulder
				{
					OFFSET 0 0 0
					CHANNELS 3 Zrotation Yrotation Xrotation
					JOINT RightArm
					{
						OFFSET -3.38693 1.28904 -0.07093
						CHANNELS 3 Zrotation Yrotation Xrotation
						JOINT RightForeArm
						{
							OFFSET -5.14182 -0.00000 -0.00000
							CHANNELS 3 Zrotation Yrotation Xrotation
							JOINT RightHand
							{
								OFFSET -3.35565 -0.00000 -0.00000
								CHANNELS 3 Zrotation Yrotation Xrotation
								JOINT RightFingerBase
								{
									OFFSET 0 0 0
									CHANNELS 3 Zrotation Yrotation Xrotation
									JOINT RightHandIndex1
									{
										OFFSET -0.80104 -0.00000 -0.00000
										CHANNELS 3 Zrotation Yrotation Xrotation
										End Site
										{
											OFFSET -0.64582 -0.00000 -0.00000
										}
									}
								}
								JOINT RThumb
								{
									OFFSET 0 0 0
									CHANNELS 3 Zrotation Yrotation Xrotation
									End Site
									{
										OFFSET -0.65568 -0.00000 0.65568
									}
								}
							}
						}
					}
				}
			}
		}
	}
}
MOTION
Frames: 7
Frame Time: .0083333
-0.0562 17.1473 -1.5830 3.6161 0.9343 8.1286 0.0000 0.0000 0.0000 -20.6366 -10.7114 -25.4143 5.7970 14.2287 44.1614 1.9400 -2.3910 -25.7083 0.7748 -5.6201 -15.6861 0.0000 0.0000 0.0000 12.0542 7.9047 -28.0932 -6.6430 -15.0237 47.5108 -2.0835 -5.1279 -29.4821 -0.3608 3.8587 -10.6796 -0.8871 1.6025 6.0924 -1.5862 2.0181 0.0865 -1.3161 1.0056 -3.2993 -8.3300 -4.7203 2.8236 5.5434 -6.6852 7.1162 3.1910 -3.4429 2.3275 -0.0000 0.0000 0.0000 -49.9763 11.8148 -21.5204 137.5009 -49.4828 -99.6808 -0.0000 -0.0000 14.7732 13.5955 34.2344 7.7478 -7.1250 0.0000 -0.0000 -23.8489 63.4241 -10.9737 -0.0000 0.0000 0.0000 46.2274 -12.5972 97.1030 -82.1344 59.7649 -53.1936 0.0000 0.0000 2.1896 -19.3618 35.8335 -11.6249 7.1250 -0.0000 -0.0000 7.5287 7.1633 8.4781
-0.0605 17.1455 -1.5836 3.6335 0.9272 8.1461 0.0000 0.0000 0.0000 -20.6298 -10.7257 -25.4579 5.8044 14.2361 44.1915 1.9457 -2.3736 -25.7517 0.7903 -5.6747 -15.8434 0.0000 0.0000 0.0000 12.0444 7.9242 -28.1215 -6.6496 -15.0296 47.5362 -2.0820 -5.1534 -29.4856 -0.3583 3.8457 -10.6430 -1.0110 1.5942 6.0819 -1.5681 1.9989 0.0746 -1.2262 0.9981 -3.3108 -8.2993 -4.7018 2.9007 5.4717 -6.6601 7.0613 3.1630 -3.4313 2.2883 0.0000 0.0000 0.0000 -49.9421 11.8187 -21.5169 137.4368 -49.5172 -99.6321 -0.0000 -0.0000 14.7273 13.4513 34.2745 7.6713 -7.1250 0.0000 -0.0000 -24.0460 63.4221 -11.0687 0.0000 0.0000 0.0000 46.1737 -12.6014 97.1748 -82.1226 59.7642 -53.1834 0.0000 0.0000 2.2562 -19.4827 35.8513 -11.7062 7.1250 -0.0000 -0.0000 7.4665 7.2065 8.4117
-0.0629 17.1440 -1.5828 3.5968 0.9327 8.1289 0.0000 0.0000 0.0000 -20.5868 -10.7035 -25.4733 5.8177 14.2493 44.2455 1.9550 -2.2834 -25.8366 0.8339 -5.8256 -16.2791 0.0000 0.0000 0.0000 12.0959 7.9225 -28.0870 -6.6467 -15.0270 47.5251 -2.0874 -5.1095 -29.4979 -0.3459 3.7792 -10.4562 -1.0203 1.5928 6.0933 -1.5704 1.9962 0.0797 -1.2234 0.9969 -3.3123 -8.2332 -4.7013 2.9318 5.4101 -6.6566 7.0257 3.1303 -3.4290 2.2645 -0.0000 0.0000 0.0000 -49.8734 11.8264 -21.5126 137.4262 -49.5230 -99.6240 -0.0000 -0.0000 14.7056 13.3108 34.3438 7.6025 -7.1250 0.0000 -0.0000 -24.2686 63.4471 -11.1915 -0.0000 0.0000 0.0000 46.1930 -12.6237 97.1890 -82.0676 59.7609 -53.1359 0.0000 0.0000 2.3340 -19.5597 35.8655 -11.7588 7.1250 -0.0000 -0.0000 7.4272 7.2369 8.3702
-0.0650 17.1437 -1.5837 3.5098 0.9777 8.0880 0.0000 0.0000 0.0000 -20.4861 -10.6845 -25.4766 5.8346 14.2661 44.3144 1.9530 -2.2564 -25.8295 0.8395 -5.8446 -16.3341 0.0000 0.0000 0.0000 12.2167 7.8744 -28.0349 -6.6367 -15.0182 47.4865 -2.0785 -5.1561 -29.4649 -0.3454 3.7762 -10.4478 -0.9418 1.5882 6.1496 -1.5676 1.9949 0.1002 -1.2658 0.9950 -3.3201 -8.1498 -4.7131 2.9335 5.3543 -6.6671 6.9773 3.0954 -3.4325 2.2423 0.0000 -0.0000 0.0000 -49.8173 11.7732 -21.4805 137.4452 -49.5128 -99.6384 -0.0000 -0.0000 14.6921 13.3148 34.4004 7.6158 -7.1250 0.0000 -0.0000 -24.3223 63.4988 -11.2472 0.0000 -0.0000 0.0000 46.2269 -12.6152 97.1493 -82.0197 59.7580 -53.0945 0.0000 0.0000 2.4005 -19.7159 35.8556 -11.8548 7.1250 -0.0000 -0.0000 7.3418 7.2599 8.2750
-0.0682 17.1441 -1.5844 3.4550 1.0101 8.0905 0.0000 0.0000 0.0000 -20.4022 -10.7314 -25.5133 5.8524 14.2838 44.3865 1.9481 -2.3333 -25.7773 0.7905 -5.6756 -15.8461 0.0000 0.0000 0.0000 12.2898 7.8840 -28.0668 -6.6277 -15.0102 47.4518 -2.0570 -5.3044 -29.4037 -0.3803 3.9603 -10.9651 -0.9133 1.5797 6.1645 -1.5678 1.9857 0.1236 -1.2812 0.9900 -3.3034 -8.1725 -4.7123 2.8365 5.4003 -6.6621 6.9902 3.1132 -3.4288 2.2669 0.0000 -0.0000 0.0000 -49.7932 11.6948 -21.4981 137.4428 -49.5141 -99.6366 -0.0000 -0.0000 14.6256 13.3391 34.4082 7.6315 -7.1250 0.0000 -0.0000 -24.3041 63.5123 -11.2459 0.0000 -0.0000 0.0000 46.2328 -12.5768 97.1099 -82.0368 59.7590 -53.1093 0.0000 0.0000 2.3431 -19.7263 35.8353 -11.8558 7.1250 -0.0000 -0.0000 7.3330 7.2418 8.2629
-0.0724 17.1449 -1.5835 3.3622 0.9854 8.1446 0.0000 0.0000 0.0000 -20.2650 -10.7408 -25.6112 5.8692 14.3004 44.4546 1.9606 -2.3778 -25.8522 0.7882 -5.6673 -15.8222 0.0000 0.0000 0.0000 12.3950 7.9498 -28.1475 -6.6237 -15.0067 47.4365 -2.0390 -5.4207 -29.3493 -0.4202 4.1604 -11.5283 -0.8852 1.5957 6.1174 -1.5566 2.0101 0.1190 -1.2860 1.0019 -3.2808 -8.2526 -4.7196 2.7506 5.4777 -6.6732 7.0826 3.1523 -3.4347 2.3217 -0.0000 -0.0000 0.0000 -49.7423 11.6731 -21.4858 137.4131 -49.5300 -99.6141 -0.0000 -0.0000 14.5920 13.3632 34.4556 7.6547 -7.1250 0.0000 -0.0000 -24.3265 63.5609 -11.2845 -0.0000 -0.0000 0.0000 46.2363 -12.5719 97.1020 -82.0376 59.7591 -53.1100 0.0000 0.0000 2.2623 -19.6107 35.7707 -11.7648 7.1250 -0.0000 -0.0000 7.3852 7.1530 8.3127
-0.0770 17.1424 -1.5833 3.3130 0.9902 8.1674 0.0000 0.0000 0.0000 -20.1825 -10.7166 -25.6898 5.8856 14.3166 44.5209 1.9654 -2.3525 -25.8909 0.8143 -5.7583 -16.0846 0.0000 0.0000 0.0000 12.4748 7.9373 -28.1496 -6.6302 -15.0124 47.4614 -2.0578 -5.3041 -29.4088 -0.4017 4.0690 -11.2707 -0.9185 1.5854 6.0925 -1.5446 1.9951 0.1209 -1.2528 0.9950 -3.2667 -8.2849 -4.7288 2.7645 5.4601 -6.6862 7.1001 3.1522 -3.4426 2.3268 0.0000 -0.0000 0.0000 -49.6936 11.7798 -21.4982 137.4155 -49.5287 -99.6159 -0.0000 -0.0000 14.5821 13.4526 34.5593 7.7273 -7.1250 0.0000 -0.0000 -24.3364 63.6772 -11.3555 0.0000 -0.0000 0.0000 46.2245 -12.5241 97.1162 -82.0012 59.7569 -53.0785 0.0000 0.0000 2.2490 -19.5585 35.8059 -11.7416 7.1250 -0.0000 -0.0000 7.4187 7.1770 8.3537
